<?xml version="1.0" encoding="UTF-8"?>
<svg version="1.1" xmlns="http://www.w3.org/2000/svg" width="32" height="32">
<path d="M0 0 C2.64 0 5.28 0 8 0 C7.67 1.98 7.34 3.96 7 6 C8.98 6 10.96 6 13 6 C10.86233829 13.244298 7.77315981 19.46718285 4 26 C1.36 26 -1.28 26 -4 26 C-4.66 27.32 -5.32 28.64 -6 30 C-8.64 30 -11.28 30 -14 30 C-13.67 27.69 -13.34 25.38 -13 23 C-14.98 23 -16.96 23 -19 23 C-16.76262214 15.96360875 -14.25975924 9.0659611 -10 3 C-7.342575 1.84031856 -5.68838771 1.70798465 -2.8203125 1.921875 C-2.21960938 1.94765625 -1.61890625 1.9734375 -1 2 C-0.67 1.34 -0.34 0.68 0 0 Z M-3 4 C-2 6 -2 6 -2 6 Z " fill="#A6CFEE" transform="translate(19,1)"/>
<path d="M0 0 C0.33 0.66 0.66 1.32 1 2 C0.67 2.66 0.34 3.32 0 4 C-0.66 4 -1.32 4 -2 4 C-2.226875 4.763125 -2.45375 5.52625 -2.6875 6.3125 C-4.48165488 11.35322087 -6.74058077 16.15345951 -9 21 C-11.31 21 -13.62 21 -16 21 C-14.55843516 16.42215262 -12.83762044 12.03488044 -10.8125 7.6875 C-10.54630859 7.05521484 -10.28011719 6.42292969 -10.00585938 5.77148438 C-9.14453125 3.94921875 -9.14453125 3.94921875 -7 1 C-3.26171875 0.08203125 -3.26171875 0.08203125 0 0 Z " fill="#A7D1EF" transform="translate(16,3)"/>
<path d="M0 0 C1.98 0 3.96 0 6 0 C3.86233829 7.244298 0.77315981 13.46718285 -3 20 C-4.98 20 -6.96 20 -9 20 C-8.40440894 15.13127946 -6.27522585 11.40671159 -3.9375 7.1875 C-3.56044922 6.49462891 -3.18339844 5.80175781 -2.79492188 5.08789062 C-1.86916148 3.38871015 -0.93537688 1.69390575 0 0 Z " fill="#A9D2F0" transform="translate(26,7)"/>
<path d="M0 0 C0.66 0 1.32 0 2 0 C-0.50584108 8.40193774 -4.21025857 16.11941439 -8 24 C-10.15046272 17.54861184 -4.61564978 9.06486538 -1.6875 3.1875 C-0.8521875 1.6096875 -0.8521875 1.6096875 0 0 Z " fill="#48A0D8" transform="translate(14,7)"/>
<path d="M0 0 C0.33 0 0.66 0 1 0 C0.49755478 6.00541662 -1.39886749 10.56883136 -4.0625 15.9375 C-4.43955078 16.71673828 -4.81660156 17.49597656 -5.20507812 18.29882812 C-6.12815055 20.20339529 -7.06289062 22.10230013 -8 24 C-8.33 24 -8.66 24 -9 24 C-8.54795511 17.6283196 -6.93966344 13.09989036 -3.9375 7.5 C-3.37192383 6.40945313 -3.37192383 6.40945313 -2.79492188 5.296875 C-1.87427046 3.52549507 -0.93867864 1.76189339 0 0 Z " fill="#49A0D8" transform="translate(25,3)"/>
<path d="M0 0 C0.88336837 2.4667645 1.1312406 3.63859372 0.22265625 6.140625 C-0.16019531 6.83671875 -0.54304687 7.5328125 -0.9375 8.25 C-1.31777344 8.95640625 -1.69804688 9.6628125 -2.08984375 10.390625 C-2.39019531 10.92171875 -2.69054687 11.4528125 -3 12 C-4.12668965 8.61993106 -3.89636912 8.0359269 -2.625 4.875 C-2.34914063 4.17117187 -2.07328125 3.46734375 -1.7890625 2.7421875 C-1 1 -1 1 0 0 Z " fill="#3B94D2" transform="translate(9,19)"/>
<path d="M0 0 C1.65 0 3.3 0 5 0 C4.67 0.99 4.34 1.98 4 3 C4 2.34 4 1.68 4 1 C2.68 0.67 1.36 0.34 0 0 Z " fill="#64DCEE" transform="translate(0,25)"/>
<path d="M0 0 C0.33 0.66 0.66 1.32 1 2 C3.02463255 2.65213292 3.02463255 2.65213292 5 3 C3.35 3 1.7 3 0 3 C0 2.01 0 1.02 0 0 Z " fill="#89AAEF" transform="translate(27,3)"/>
<path d="M0 0 C2.31 0 4.62 0 7 0 C7 0.33 7 0.66 7 1 C4.69 1 2.38 1 0 1 C0 0.67 0 0.34 0 0 Z " fill="#97F2F2" transform="translate(9,2)"/>
<path d="" fill="#3FFFFF" transform="translate(0,0)"/>
<path d="" fill="#DFDFFF" transform="translate(0,0)"/>
<path d="" fill="#004040" transform="translate(0,0)"/>
<path d="" fill="#8CE5FF" transform="translate(0,0)"/>
<path d="" fill="#AAFFFF" transform="translate(0,0)"/>
<path d="" fill="#B4B4FF" transform="translate(0,0)"/>
<path d="" fill="#DFFFFF" transform="translate(0,0)"/>
<path d="" fill="#8CE5E5" transform="translate(0,0)"/>
<path d="" fill="#8CE5E5" transform="translate(0,0)"/>
<path d="" fill="#CCE5FF" transform="translate(0,0)"/>
<path d="" fill="#DFFFFF" transform="translate(0,0)"/>
<path d="" fill="#CCE5E5" transform="translate(0,0)"/>
<path d="" fill="#B4B4FF" transform="translate(0,0)"/>
<path d="" fill="#AAD4FF" transform="translate(0,0)"/>
<path d="" fill="#9FDFFF" transform="translate(0,0)"/>
<path d="" fill="#5FFFFF" transform="translate(0,0)"/>
<path d="" fill="#CCE5E5" transform="translate(0,0)"/>
<path d="" fill="#D4D4D4" transform="translate(0,0)"/>
<path d="" fill="#FFFFFF" transform="translate(0,0)"/>
<path d="" fill="#FFFFFF" transform="translate(0,0)"/>
<path d="" fill="#FFFFFF" transform="translate(0,0)"/>
<path d="" fill="#FFFFFF" transform="translate(0,0)"/>
<path d="" fill="#FFFFFF" transform="translate(0,0)"/>
<path d="" fill="#00FFFF" transform="translate(0,0)"/>
<path d="" fill="#FFFFFF" transform="translate(0,0)"/>
</svg>
